+15_ID_stride2.mot
nRows=15
nColumns=38

name +15_ID_stride2.mot
datacolumns 38
datarows 15
range 0.4650000000 0.5350000000
endheader
time	pelvis_tilt_moment	pelvis_list_moment	pelvis_rotation_moment	pelvis_tx_force	pelvis_ty_force	pelvis_tz_force	hip_flexion_r_moment	hip_adduction_r_moment	hip_rotation_r_moment	knee_angle_r_moment	ankle_angle_r_moment	subtalar_angle_r_moment	mtp_angle_r_moment	hip_flexion_l_moment	hip_adduction_l_moment	hip_rotation_l_moment	knee_angle_l_moment	ankle_angle_l_moment	subtalar_angle_l_moment	mtp_angle_l_moment	lumbar_extension_moment	lumbar_bending_moment	lumbar_rotation_moment	arm_flex_r_moment	arm_add_r_moment	arm_rot_r_moment	elbow_flex_r_moment	pro_sup_r_moment	wrist_flex_r_moment	wrist_dev_r_moment	arm_flex_l_moment	arm_add_l_moment	arm_rot_l_moment	elbow_flex_l_moment	pro_sup_l_moment	wrist_flex_l_moment	wrist_dev_l_moment
        0.4650000000	      -27.0952466397	      -74.3630119962	      -25.0314284790	       -9.3407927563	      203.5771042670	      237.0918046736	     -176.8881284395	      -16.5791842427	       -1.5859957479	      -79.4425580509	       -0.9566038014	       -0.8058455138	        0.1199727510	       96.2317987802	      -55.1170554583	       11.4200776955	       40.0511265698	        4.5949431245	       -1.3536501799	        0.1775175720	       30.9899663806	      -21.5345304074	        5.6499252248	        0.9311259738	       -0.0405511766	        0.2305217073	        1.8176721724	       -0.0100034259	        0.0856690369	       -0.1531154594	       -1.3436712211	        1.4315476629	        0.4903609609	        1.1013650453	       -0.0267175915	        0.0470641815	       -0.1145608418	
        0.4700000000	       -4.0830947016	      -72.5653650385	      -25.3288582850	      -27.4596913612	      360.6740829026	      263.8681044754	     -164.8257247041	      -15.6514665021	       -0.1002833252	      -73.2150817924	        0.7012883404	       -0.5885693042	        0.1764718977	       87.1968262532	      -45.2473978896	       11.6572649358	       39.5584347072	        4.8350328067	       -1.2983934039	        0.2143496904	       40.4256365479	      -29.7775277132	        3.0542131114	       -0.1770614591	        0.2921320163	        0.3037236240	        2.2540573079	       -0.0173018088	        0.0931321558	       -0.1813617579	       -2.0577069219	        1.3895069783	        0.6219858639	        1.5363917273	       -0.0282466151	        0.0804456308	       -0.1384553230	
        0.4750000000	       26.5719738647	       15.2418218452	      -15.2570675849	      -34.2477297060	      432.2658256631	      203.9916154151	      -76.8599686601	      -22.9617971489	        1.5367878389	      -17.7594034589	       11.5895185222	        3.9219165357	        0.2262187258	       79.9298454716	      -34.3972785423	       11.4515744460	       38.3270116499	        5.0304933894	       -1.2493400183	        0.2467251252	       50.1941567313	      -37.3112065845	        1.5774491650	       -1.0709576438	        0.8910490458	        0.6168106404	        2.6999906729	       -0.0209723068	        0.1246451279	       -0.2087861381	       -2.7191998501	        0.9817194242	        0.6234573411	        1.9998038845	       -0.0377141798	        0.0977170019	       -0.1711229253	
        0.4800000000	       59.3840290547	       62.3591260447	       -3.4504470499	      -30.3516721485	      440.2477725869	      136.2013214019	      -34.4017514886	      -37.1155075733	       10.4367948620	        7.8067789804	        8.6483009823	        8.4787225244	        0.2632234954	       76.3980180752	      -24.1040693293	       10.7788103695	       37.0708236414	        5.1562164701	       -1.1966720684	        0.2702866178	       57.4445832759	      -41.6113454088	        1.8516023336	       -1.3791117145	        1.5439633172	        0.9810293014	        3.0964820282	       -0.0205755895	        0.1621428894	       -0.2330145406	       -3.0753051559	        0.5021452818	        0.4729075940	        2.4297588738	       -0.0501794602	        0.0925370350	       -0.2070592737	
        0.4850000000	       84.0889463921	       93.5090963313	       10.8206198681	      -15.4859112946	      407.2857996212	       50.4223697849	      -15.4872563093	      -53.8679329623	       24.3803916362	       22.1299359457	       -2.4041506085	       14.5867505124	        0.2791924092	       76.0353382058	      -15.1065315500	        9.5624775457	       35.8964366928	        5.1692022410	       -1.1305495948	        0.2817174426	       60.0822255078	      -41.5391968113	        3.1187809113	       -1.3083074172	        2.1203080546	        1.3370615516	        3.3845220097	       -0.0184798113	        0.1996864325	       -0.2491549666	       -3.1121917949	        0.0462011042	        0.1763957270	        2.7646886382	       -0.0636490726	        0.0746044399	       -0.2396285081	
        0.4900000000	       90.6514453115	      101.8695340265	       24.8171600928	        9.9409426400	      291.9100257739	      -30.4430094052	      -14.8092084193	      -64.1699323467	       37.1006565408	       25.3862915459	      -21.7875954766	       22.2302979550	        0.2798041002	       76.6119075475	       -7.8833462359	        8.0094616806	       34.8047549935	        5.1118055956	       -1.0428259123	        0.2832722051	       60.0233556687	      -37.7595077402	        5.3470810690	       -0.9299953329	        2.4467446983	        1.6049540083	        3.4744382814	       -0.0149002024	        0.2287136335	       -0.2531972090	       -3.0285299270	       -0.2245300751	       -0.1087265912	        2.9430413062	       -0.0741649503	        0.0488566224	       -0.2595688040	
        0.4950000000	       81.2524874028	       83.7715399875	       35.0399608240	       36.4419355438	      150.6239739968	      -67.9677845603	      -44.9892741225	      -66.8498469399	       44.7743789246	       16.7981706731	      -47.6202110749	       30.0451948014	        0.2582642869	       77.0317859628	       -2.6657945319	        6.2996932133	       33.6453052027	        4.9063943455	       -0.9317201888	        0.2739128713	       56.3992667568	      -29.3657950385	        7.7189624653	       -0.5540107175	        2.5336833431	        1.7349400898	        3.4659815918	       -0.0114966405	        0.2438396068	       -0.2468913937	       -2.9369287868	       -0.3002627826	       -0.2824231189	        2.9892842006	       -0.0787862146	        0.0272133462	       -0.2656657783	
        0.5000000000	       49.4530436888	       43.0171225352	       41.4849155124	       59.0780644776	        6.9568686566	      -61.6506449992	      -90.1619583748	      -57.2526747472	       46.4999159385	        3.8107805677	      -74.1823850270	       37.3765492485	        0.2185581441	       75.0068183456	        0.8541124771	        4.6377415045	       32.2001981981	        4.5852856844	       -0.8040821189	        0.2545032044	       51.3956849300	      -18.6795339303	        9.7820434267	       -0.3663002121	        2.3381078109	        1.7527241458	        3.2887952136	       -0.0090030089	        0.2472062962	       -0.2284737890	       -2.9921683958	       -0.1297329351	       -0.3260628534	        2.9080876347	       -0.0780024571	        0.0140781540	       -0.2564216953	
        0.5050000000	       10.9806483990	        4.2521444884	       42.3095509708	       70.3101685703	     -106.7211520737	      -35.7147165014	     -128.0926934257	      -42.6612597473	       44.4868894081	        3.2080596770	      -94.2794861156	       42.8511808469	        0.1703961220	       71.3111273767	        2.5621524554	        3.2885877596	       30.4887687138	        4.2076671145	       -0.6788932627	        0.2308386688	       46.4992793469	       -8.4580420008	       11.0546976875	       -0.3922478928	        2.0584668514	        1.7246279709	        3.1340837427	       -0.0091669259	        0.2447114675	       -0.2111939572	       -3.1187012903	        0.1325738188	       -0.2888082996	        2.8655341143	       -0.0753044136	        0.0137679813	       -0.2449730464	
        0.5100000000	      -25.1055148716	      -17.4017071408	       41.6330325430	       72.0593204716	     -171.4768814074	        7.4950398337	     -140.7428958714	      -26.8273007300	       37.9259337121	       13.0841447222	     -105.8741553341	       45.9879248447	        0.1186571891	       66.3189877767	        2.9484677213	        2.3247551942	       28.5901269091	        3.8186360818	       -0.5675704474	        0.2058822553	       42.3326838094	       -0.9119004716	       11.4118621165	       -0.4411790863	        1.8751101511	        1.6633993041	        3.1084324328	       -0.0119387819	        0.2413979467	       -0.2065392294	       -3.1769774013	        0.4133967461	       -0.1783378985	        2.8922048810	       -0.0736249060	        0.0201764360	       -0.2419442039	
        0.5150000000	      -47.1497568116	      -22.3182367700	       38.2298470144	       63.8127132376	     -190.4468322205	       26.4340517901	     -139.3069501630	      -17.1307219839	       32.3746897087	       40.1938506276	     -111.0920098781	       47.3378942064	        0.0717441321	       62.3478294168	        2.6371134936	        1.6781826927	       26.7293640177	        3.4914117734	       -0.4782237518	        0.1843976081	       39.3279917547	        2.1404945622	       11.3470090934	       -0.3525254780	        1.8525890342	        1.6453259431	        3.3295223847	       -0.0191571848	        0.2418619876	       -0.2208109811	       -2.9900510338	        0.5501359709	       -0.1222703094	        3.1859799593	       -0.0766163242	        0.0309921054	       -0.2585976221	
        0.5200000000	      -53.7569525013	      -11.8983692102	       35.1590815049	       46.2017500697	     -156.3242114775	       11.4189979365	     -116.9375996420	      -14.3978007190	       29.8611164002	       71.7164808635	     -113.7947196247	       47.9420617781	        0.0346530077	       60.4740864893	        2.0076202727	        1.1756060941	       25.0355418278	        3.2629433821	       -0.4084675543	        0.1689296041	       37.6205077090	        0.2527522250	       10.8201468715	        0.2581048446	        2.2104448803	        1.7178747585	        3.9277288258	       -0.0303693707	        0.2566621434	       -0.2694374154	       -2.2674559683	        0.5305506831	       -0.1731324111	        3.7894038858	       -0.0903554731	        0.0391929372	       -0.3096776534	
        0.5250000000	      -44.7608205158	       -1.5614063360	       34.3945969015	       23.1389692665	      -82.9424697826	      -37.9586878923	      -95.6441805900	      -17.8650775814	       31.8456582808	       96.9650714347	     -120.2714203132	       49.8232890091	        0.0099626707	       61.1852747225	        2.0286539707	        0.5037119865	       23.4543745150	        3.1395898311	       -0.3455524707	        0.1603071450	       37.8141451918	       -6.7050530819	       10.3959364661	        1.3949446430	        2.8644496371	        1.8807623575	        4.8506549037	       -0.0446098730	        0.2842581958	       -0.3469480844	       -1.0805652979	        0.3238072493	       -0.3637204768	        4.6667506685	       -0.1135259516	        0.0407500105	       -0.3907416547	
        0.5300000000	      -27.9191967586	       -3.0420101942	       36.2981193368	       -1.2699780970	       10.8215832952	     -104.6258888339	      -88.4873514565	      -23.4734069669	       36.6909312831	      105.1110881352	     -132.7596562814	       53.7544250606	        0.0008306909	       62.8478482484	        2.8419750048	       -0.5446799034	       21.7095471614	        3.0804235710	       -0.2730156297	        0.1586480797	       39.5926989048	      -16.9338653028	       10.4949132092	        2.9508094829	        3.7109049780	        2.1123162367	        5.9989266420	       -0.0599960347	        0.3227460566	       -0.4450001083	        0.3937701491	        0.0115940145	       -0.6571148227	        5.7136114095	       -0.1436082257	        0.0371504372	       -0.4926331004	
        0.5350000000	       -6.9387965012	       -9.2459792754	       41.2688003385	      -22.4486252549	      104.2608518347	     -172.4014687329	      -86.7423853567	      -30.1240007345	       43.3988650032	      107.1420238807	     -150.1168106911	       59.1283756242	       -0.0017600875	       63.9174111152	        4.8985213932	       -1.9336835588	       19.6903320004	        3.0292906158	       -0.1896492777	        0.1583438522	       43.7491735554	      -28.3878251687	       10.9138478787	        4.6868358159	        4.6042823352	        2.3770556676	        7.2152313391	       -0.0744640047	        0.3670861494	       -0.5498485094	        1.8956717101	       -0.3180159795	       -0.9964259636	        6.7850621852	       -0.1761294586	        0.0280926170	       -0.6007405934	
